<svg xmlns="http://www.w3.org/2000/svg" viewBox="0 0 68 85"><path d="M54.813 35.223c-.58-1.31-1.38-2.6-2.55-4.09-2.95-3.74-3.85-12.08-3.86-12.16a1.004 1.004 0 00-1.75-.56c-3.52 3.97-2.04 10.1-1.24 12.55.22.67.46 1.46.63 2.26 1.3 6.47-1.21 9.4-1.8 9.99-.57.16-.96.08-1.32-.31-1.24-1.37-1.65-5.86-1.07-11.71.12-1.19.09-2.26-.08-3.26-1.223-7.19-5.708-11.803-6.85-13.42-3.14-4.68-3.46-12.47-3.47-12.54a.98.98 0 00-.55-.86.992.992 0 00-1.01.07c-5.24 3.59-4.79 12.24-4.06 17.07.17 1.12.5 2.26 1.07 3.7 2.03 5.15-.4 11.8-.42 11.86-.02.06-.04.11-.05.17-.31 1.64-.83 2.62-1.41 2.62a.68.68 0 01-.19-.03c-.71-.15-1.08-.91-1.09-1.57-.04-8.53-8.53-11.4-8.62-11.43a.99.99 0 00-1.06.3.99.99 0 00-.14 1.1c.1.21.42 1.13.2 4.38a37.63 37.63 0 01-1.57 8.58c-2.02 6.64-1.7 12.93-1.68 13.23 1.553 17.03 25.844 20.015 40.26 10.42 1.58-1.05 2.87-2.25 3.82-3.57 5.32-7.4 2.19-17.45-.14-22.79zm-36.95 16.27a.996.996 0 01-.94 1.05h-.06c-.53 0-.97-.41-1-.94-.09-1.46-.07-2.99.04-4.65.04-.55.52-.96 1.07-.93.55.04.97.52.93 1.07-.11 1.58-.13 3.02-.04 4.4zm.49-8.86c-.06.51-.49.88-.99.88-.04 0-.08 0-.13-.01-.54-.07-.93-.56-.87-1.11l.48-3.86c.07-.54.56-.93 1.12-.87.55.07.94.57.87 1.12l-.48 3.85zm29.694-27.952a1 1 0 01-.835-1.14c.063-.406.424-2.486 1.404-3.532a1 1 0 111.459 1.368c-.415.443-.768 1.71-.886 2.47a1 1 0 01-1.142.834zm-36.456 4.981c-.191-.744-.667-1.97-1.123-2.37a1 1 0 111.318-1.504c1.078.944 1.64 2.98 1.743 3.377a1 1 0 01-1.938.497z"/></svg>