<svg xmlns="http://www.w3.org/2000/svg" viewBox="0 0 26.458 33.072"><path d="M3.85.52c-.426.02-.844.201-1.15.538L.554 3.417c.003-.007-.008-.006-.069.08a.52.52 0 00-.074.146c-.874 2.78-.288 5.84 1.138 8.75 1.425 2.91 3.7 5.695 6.311 7.98 2.611 2.286 5.557 4.073 8.367 4.96 2.809.887 5.532.875 7.55-.59a.52.52 0 00.063-.053c.052-.053.054-.06.046-.051l.008-.01 2.135-2.349a1.67 1.67 0 00-.11-2.348l-5.066-4.606a1.67 1.67 0 00-2.348.11l-2.291 2.52c-1.86-.539-3.451-1.452-4.98-2.843-1.53-1.391-2.59-2.89-3.302-4.69l2.29-2.52a1.67 1.67 0 00-.109-2.349L5.048.948A1.658 1.658 0 003.851.52zm.05 1.034a.62.62 0 01.446.166L9.41 6.326a.609.609 0 01.042.877L6.919 9.986a.52.52 0 00-.103.529c.769 2.097 2.009 3.818 3.715 5.37s3.535 2.624 5.695 3.19a.52.52 0 00.518-.152l2.533-2.784a.608.608 0 01.876-.041l5.066 4.606c.26.238.278.616.04.876l-2.117 2.328c-1.656 1.19-3.99 1.256-6.603.43-2.623-.827-5.471-2.543-7.992-4.749-2.52-2.206-4.714-4.9-6.063-7.651C1.15 9.214.666 6.46 1.4 4.034l2.068-2.273a.62.62 0 01.43-.208z" color="#000" style="font-feature-settings:normal;font-variant-alternates:normal;font-variant-caps:normal;font-variant-ligatures:normal;font-variant-numeric:normal;font-variant-position:normal;isolation:auto;mix-blend-mode:normal;shape-padding:0;text-decoration-color:#000;text-decoration-line:none;text-decoration-style:solid;text-indent:0;text-orientation:mixed;text-transform:none;white-space:normal"/><text y="41.458" font-size="5" font-weight="bold" font-family="'Helvetica Neue', Helvetica, Arial-Unicode, Arial, Sans-serif">Created by mardjoe</text><text y="46.458" font-size="5" font-weight="bold" font-family="'Helvetica Neue', Helvetica, Arial-Unicode, Arial, Sans-serif">from the Noun Project</text></svg>