<svg xmlns="http://www.w3.org/2000/svg" xmlns:xlink="http://www.w3.org/1999/xlink" version="1.1" x="0px" y="0px" viewBox="0 0 90 112.5" style="fill: #FF6B08; ;enable-background:new 0 0 90 90;" xml:space="preserve"><g><g><g><g><g><path d="M71.9418945,18.8634033c-2.6781006,1.1981201-5.244873,2.6610718-7.6948853,4.2927246       c-4.9273071,3.2418823-9.4319458,7.1021729-13.6573486,11.2189941       c-4.2234497,4.1269531-8.1554565,8.5432739-11.8733521,13.135376       c-0.9299316,1.1483154-5.0931396,6.2611084-5.0931396,6.2611084L16.3092651,27.8265991L9.7731934,45.9440918       l23.4138794,27.923584c2.2736206-4.6030884,4.461731-9.1470947,6.6079102-13.0950928       c0.5333252-1.0039673,1.0917969-1.9487915,1.6256104-2.9082642c0,0,2.7476807-4.8302002,3.4702759-6.046936       c2.8895264-4.8664551,6.0128174-9.6068726,9.4520264-14.1101074       c3.4431763-4.4949951,7.1862793-8.7862549,11.4295654-12.5586548c2.1114502-1.8986206,4.3588257-3.6541138,6.7667236-5.1818237       c2.4031982-1.5307007,4.9564819-2.8710938,7.6876221-3.8344727       C77.3856812,16.6912842,74.6135864,17.6619873,71.9418945,18.8634033z"/></g></g></g></g></g></svg>