<svg xmlns="http://www.w3.org/2000/svg" viewBox="0 0 90 112.5" fill="#ff6b08"><path d="M71.942 18.863c-2.678 1.199-5.245 2.661-7.695 4.293-4.927 3.242-9.432 7.102-13.657 11.22-4.224 4.126-8.156 8.542-11.874 13.134-.93 1.149-5.093 6.262-5.093 6.262L16.31 27.827 9.773 45.944l23.414 27.924c2.274-4.603 4.462-9.147 6.608-13.095.533-1.004 1.092-1.95 1.626-2.909 0 0 2.747-4.83 3.47-6.047 2.89-4.866 6.013-9.606 9.452-14.11 3.443-4.495 7.186-8.786 11.43-12.558 2.11-1.899 4.358-3.654 6.766-5.182 2.403-1.53 4.957-2.871 7.688-3.835-2.841.56-5.613 1.53-8.285 2.731z"/></svg>