<svg xmlns="http://www.w3.org/2000/svg"
 xmlns:xlink="http://www.w3.org/1999/xlink" 
 version="1.1" x="0px" y="0px" viewBox="0 0 68 85" 
 enable-background="new 0 0 68 68" xml:space="preserve">
 <g><g>
 <path  d="M54.8129,35.2228c-0.58-1.31-1.38-2.6-2.55-4.09c-2.95-3.74-3.85-12.08-3.86-12.16c-0.04-0.4-0.32-0.73-0.69-0.85    c-0.38-0.12-0.79-0.01-1.06,0.29c-3.52,3.97-2.04,10.1-1.24,12.55c0.22,0.67,0.46,1.46,0.6299,2.26c1.3,6.47-1.21,9.4-1.8,9.99    c-0.57,0.16-0.96,0.08-1.32-0.31c-1.24-1.37-1.65-5.86-1.07-11.71c0.1201-1.19,0.09-2.26-0.08-3.26    c-1.2232-7.1903-5.7082-11.8025-6.85-13.42c-3.14-4.68-3.46-12.47-3.47-12.54c-0.01-0.37-0.22-0.7-0.55-0.86    c-0.32-0.16-0.71-0.14-1.01,0.07c-5.24,3.59-4.79,12.24-4.06,17.07c0.17,1.12,0.5,2.26,1.07,3.7c2.03,5.15-0.4,11.8-0.42,11.86    c-0.02,0.06-0.04,0.11-0.05,0.17c-0.31,1.64-0.83,2.62-1.41,2.62c-0.06,0-0.12-0.01-0.19-0.03c-0.71-0.15-1.08-0.91-1.09-1.57    c-0.04-8.53-8.53-11.4-8.62-11.43c-0.38-0.12-0.8-0.01-1.06,0.3c-0.27,0.31-0.32,0.74-0.14,1.1c0.1,0.21,0.42,1.13,0.2,4.38    c-0.19,2.92-0.72,5.81-1.57,8.58c-2.02,6.64-1.7,12.93-1.68,13.23c1.5533,17.0307,25.8439,20.0149,40.26,10.42    c1.58-1.05,2.87-2.25,3.82-3.57C60.2729,50.6128,57.1429,40.5628,54.8129,35.2228z M17.8629,51.4928    c0.03,0.55-0.39,1.02-0.94,1.05h-0.06c-0.53,0-0.97-0.41-1-0.94c-0.09-1.46-0.07-2.99,0.04-4.65c0.04-0.55,0.52-0.96,1.07-0.9301    c0.55,0.04,0.97,0.52,0.93,1.07C17.7928,48.6728,17.7729,50.1128,17.8629,51.4928z M18.3528,42.6328    c-0.06,0.51-0.49,0.88-0.99,0.88c-0.04,0-0.08,0-0.13-0.01c-0.54-0.07-0.93-0.56-0.87-1.11l0.48-3.86    c0.07-0.54,0.56-0.93,1.12-0.87c0.55,0.07,0.94,0.57,0.87,1.12L18.3528,42.6328z"/>
 </g><g>
 <path  d="M48.0474,14.6811c-0.5454-0.0845-0.9194-0.5942-0.8354-1.1396c0.0625-0.4063,0.4238-2.4863,1.4043-3.5322    c0.3774-0.4033,1.0093-0.4243,1.4136-0.0454c0.4028,0.3774,0.4233,1.0103,0.0454,1.4136    c-0.415,0.4429-0.7686,1.7104-0.8867,2.4688C49.1042,14.3859,48.6009,14.7646,48.0474,14.6811z"/>
 </g><g>
 <path d="M11.5914,19.6621c-0.1914-0.7437-0.667-1.9702-1.1235-2.3706c-0.4155-0.3643-0.457-0.9961-0.0928-1.4111    c0.3633-0.416,0.9946-0.4585,1.4111-0.0928c1.0776,0.9448,1.6406,2.9795,1.7427,3.3774c0.1367,0.5347-0.1855,1.0786-0.7197,1.2163    C12.2632,20.5186,11.7275,20.1879,11.5914,19.6621z"/>
 </g></g></svg>