<svg aria-hidden="true" style="position:absolute;width:0;height:0" xmlns="http://www.w3.org/2000/svg" overflow="hidden"><defs><symbol id="icon-study-program" viewBox="0 0 26 32"><path d="M23.727 4.675v-.002a.174.174 0 00-.018-.033l-.002-.002a.179.179 0 00-.025-.031L20.145 1.07a.176.176 0 00-.03-.024l-.007-.004c-.009-.005-.017-.01-.027-.014-.003-.001-.005-.003-.008-.003A.226.226 0 0020 1.01H4.414a.21.21 0 00-.209.209v21.573a.19.19 0 00.004.041l.005.017.007.022a.114.114 0 00.01.019l.009.017c.007.011.015.02.024.029l.002.002 1.593 1.593a.209.209 0 00.296 0l1.446-1.445 1.445 1.445c.041.041.094.061.148.061s.107-.02.148-.061l1.445-1.445 1.446 1.445a.209.209 0 00.296 0l1.445-1.445 1.445 1.445a.208.208 0 00.295 0l1.446-1.445 1.445 1.445c.041.041.094.061.148.061s.107-.02.148-.061l1.445-1.445 1.446 1.445a.208.208 0 00.295 0l1.593-1.593.008-.01.017-.021c.005-.007.008-.015.012-.022a.091.091 0 00.007-.014c.004-.009.006-.019.009-.029.001-.003.003-.006.003-.01a.202.202 0 00.004-.043V4.756a.22.22 0 00-.017-.08zm-3.521-2.952l2.823 2.823h-2.823V1.723zm3.119 20.98l-1.384 1.384-1.446-1.445a.21.21 0 00-.295 0l-1.445 1.445-1.445-1.445a.21.21 0 00-.296 0l-1.446 1.445-1.445-1.444v-.001c-.041-.041-.094-.061-.148-.061s-.107.02-.148.061l-1.445 1.445-1.446-1.445a.21.21 0 00-.296 0l-1.445 1.445-1.445-1.445a.21.21 0 00-.296 0l-1.446 1.445-1.384-1.384V1.426h15.164v3.328a.21.21 0 00.209.209h3.328v17.74z"/><path d="M6.183 3.404h6.847c.115 0 .209-.094.209-.209s-.094-.209-.209-.209H6.183a.209.209 0 100 .418zm0 1.293h10.98c.115 0 .209-.094.209-.209s-.094-.209-.209-.209H6.183a.209.209 0 100 .418zm-.209 1.161v6.77c0 .115.093.209.209.209h15.583a.21.21 0 00.209-.209v-6.77a.209.209 0 00-.209-.209H6.183a.209.209 0 00-.209.209zm4.621.209h10.961v1.799H10.595V6.067zm0 2.218h10.961v1.799H10.595V8.285zm0 2.217h10.961v1.917H10.595v-1.917zM6.392 6.067h3.785v1.799H6.392V6.067zm0 2.218h3.785v1.799H6.392V8.285zm0 2.217h3.785v1.917H6.392v-1.917zm15.374 3.276H6.183a.209.209 0 00-.209.209v6.77a.209.209 0 10.418 0v-2.126h3.785v2.126a.209.209 0 10.418 0v-2.126h10.961v2.126a.209.209 0 10.418 0v-6.77a.209.209 0 00-.208-.209zm-11.589 4.435H6.392v-1.798h3.785v1.798zm0-2.217H6.392v-1.799h3.785v1.799zm11.379 2.217H10.595v-1.798h10.961v1.798zm0-2.217H10.595v-1.799h10.961v1.799zM3.215 1.008a.21.21 0 00-.209.209V22.79c0 .115.094.209.209.209s.209-.094.209-.209V1.217a.21.21 0 00-.209-.209zm-1.15 0a.21.21 0 00-.209.209V22.79c0 .115.094.209.209.209s.209-.094.209-.209V1.217a.209.209 0 00-.209-.209z"/></symbol><symbol id="icon-book" viewBox="0 0 26 32"><path d="M3.719 6.407h7.654v.573H3.719v-.573zm1.146 2.137h6.508v.573H4.865v-.573zm-1.146 2.137h7.654v.573H3.719v-.573zm1.146 2.137h6.508v.573H4.865v-.573zm-1.146 2.137h7.654v.573H3.719v-.573zm1.146 2.137h6.508v.573H4.865v-.573zm9.361-10.685h7.654v.573h-7.654v-.573zm0 2.137h6.508v.573h-6.508v-.573zm0 2.137h7.654v.573h-7.654v-.573zm0 2.137h6.508v.573h-6.508v-.573zm0 2.137h7.654v.573h-7.654v-.573zm0 2.137h6.508v.573h-6.508v-.573z"/><path d="M24.645 5.754h-1.051V4.176a.287.287 0 00-.287-.287h-8.566c-.836 0-1.561.452-1.941 1.128a2.215 2.215 0 00-1.941-1.128H2.293a.287.287 0 00-.287.287v1.578H.955a.287.287 0 00-.287.287v15.383c0 .158.128.287.287.287h23.69a.287.287 0 00.287-.287V6.041a.287.287 0 00-.287-.287zm-9.904-1.291h8.28v15.349H14.13c-.394 0-.788.166-1.043.382V6.114c0-.915.732-1.651 1.654-1.651zm-12.162 0h8.28a1.64 1.64 0 011.651 1.588c0 .012.002.051.004.063v14.079a1.675 1.675 0 00-1.039-.381H2.58V4.463zM1.242 6.328h.764v13.771c0 .158.128.287.287.287h9.182c.437 0 .859.287.994.753H1.243V6.329zm23.116 14.809H13.132c.136-.468.554-.753.998-.753h9.178a.287.287 0 00.287-.287V6.326h.764v14.81z"/></symbol><symbol id="icon-mobile-learning" viewBox="0 0 26 32"><path d="M23.211.668H11.366a1.4 1.4 0 00-1.398 1.398v4.903l-8.8 3.693a.287.287 0 00-.037.51l1.122.672v7.157a1.292 1.292 0 00-1.004 1.259v.69c0 .158.128.287.287.287h2.01a.287.287 0 00.287-.287v-.69c0-.614-.431-1.127-1.005-1.258v-6.815l.887.531c-.027.205-.003-.357-.013 3.332 0 1.213 3.106 1.862 6.266 1.899v5.586a1.396 1.396 0 001.397 1.397H23.21c.77 0 1.397-.627 1.397-1.397 0 .038-.002-1.183 0-21.469 0-.761-.629-1.399-1.396-1.399zM3.259 20.261v.403H1.823v-.403a.719.719 0 111.436 0zm19.952 4.096H11.366a.828.828 0 01-.684-.362.817.817 0 01-.141-.46v-1.936h13.491v1.937a.83.83 0 01-.822.822zm.822-3.331H10.541v-3.074c1.543-.018 6.27-.357 6.27-1.901-.002-2.317.004-3.257-.007-3.337l2.573-1.541a.286.286 0 00-.037-.51L10.541 6.97V4.577h13.492v16.45zm-13.778-6.878c-1.59 0-4.65.205-5.98 1.073.008-2.656-.092-2.483.235-2.708.826-.608 3.188-1.033 5.745-1.033 1.115 0 5.983.307 5.983 1.337v2.404c-1.342-.876-4.387-1.074-5.983-1.074zm.287-12.082c0-.454.37-.824.824-.824h11.845c.455 0 .822.375.822.824v1.936H10.542V2.066zm-.287 5.405l8.342 3.502-2.067 1.237c-1.099-1.09-4.734-1.301-6.275-1.301-1.543 0-5.179.212-6.275 1.302l-2.068-1.237 8.343-3.502zm-5.98 8.58c0-.464 2.054-1.329 5.98-1.329 3.928 0 5.983.866 5.983 1.329s-2.055 1.33-5.983 1.33c-3.926 0-5.98-.866-5.98-1.33z"/><path d="M17.288 22.031a.949.949 0 10.001 1.897.949.949 0 00-.001-1.897zm0 1.323a.375.375 0 110-.75.375.375 0 010 .75zM16.195 2.336h2.186v.573h-2.186v-.573z"/></symbol><symbol id="icon-female-student" viewBox="0 0 26 32"><path d="M2.211 25.028h21.198c.105-2.407-.068-6.401-1.554-8.302l-.054-.068-3.248-1.624c.071-.237.105-.454.119-.613a1.118 1.118 0 00-.079-.534c-.536-1.277-1.67-1.948-2.293-2.235.19-.381.313-.791.372-1.209a1.04 1.04 0 00.73-.749l.379-1.534a1.037 1.037 0 00-.119-.79 1.034 1.034 0 00-.233-.264c1.069-2.418-.721-4.697-.819-4.817C14.671.202 12.222.592 12.092.615c-3.535.737-4.899 3.434-4.129 6.598a1.034 1.034 0 00-.239.946l.381 1.535c.092.369.374.647.725.747.108.766.434 1.459.912 2.017v1.216c-5.072 2.586-1.858.936-5.923 2.984-.008.038-1.907 2.048-1.625 8.006l.017.364zm20.462-.764h-3.489v-1.459l2.307-5.26c1.156 1.91 1.199 5.558 1.181 6.719zm-4.762-9.908c-.135 1.54-.983 1.075-1.506 2.261-.412-.451-.536-.992-.425-1.57.2-1.063-.451-1.378-.29-2.495l.024-.026v-.004c.014-.015.142-.168.179-.216 1.38.599 2.045 1.713 2.018 2.049zm-7.405-1.211a3.938 3.938 0 002.246.704c.784 0 1.528-.227 2.166-.645.088.878.433 1.054.311 1.7-.023.12-.035.238-.043.354l-2.376 2.666-3.037-3.41.733-.381v-.988zm-.955-3.263V5.806c.37-.681.874-1.175 1.5-1.471 1.678.945 3.609 2.356 4.904 3.776-.001 1.808.005 1.813-.007 1.962l-.001.009a3.2 3.2 0 01-3.196 3.003A3.206 3.206 0 019.55 9.882zm-.473 5.002l3.732 4.19 2.506-2.812c.057.164.138.319.229.469l-2.735 3.406-4.079-5.08.346-.173zm7.642-5.617v-1.18l.285-.325c.016.598.081-.108-.285 1.506zm-4.486-7.9c.152.009 2.188-.308 3.798 1.422.063.079 1.374 1.76.847 3.599-.18-.818-.494-1.867-.991-2.368l-.543.538c.49.494.812 1.999.935 2.78-2.248-2.342-5.148-3.825-5.188-3.85-.145.09-1.373.322-2.264 2.047l-.043.082v1.267l-.112.001C8.107 4.163 9.191 2 12.232 1.366zm-3.64 6.305l.193.778v.818l-.321-1.292c-.047-.193.096-.266.128-.304zm-.562 7.734l4.778 5.951 3.233-4.026c.352.313.521.358 1.266.74l-.252-.849c-.064-.216.189-.562.341-.721a2.3 2.3 0 00.837-.77l2.638 1.319-2.454 5.595v1.619H7.2v-1.62l-2.456-5.595 3.287-1.643zm-3.903 2.14l2.308 5.258v1.459H2.948c-.018-1.161.026-4.807 1.181-6.718z"/></symbol><symbol id="icon-audio-book" viewBox="0 0 26 32"><path d="M2.048 21.84h8.219a2.51 2.51 0 002.271 1.422h.519a2.51 2.51 0 002.272-1.422h8.223c.847 0 1.536-.689 1.536-1.536V5.584c0-.847-.689-1.536-1.536-1.536h-.829v-.686c0-.565-.459-1.024-1.024-1.024H3.897c-.564 0-1.024.459-1.024 1.024v.686h-.825c-.847 0-1.536.689-1.536 1.536v14.72c0 .847.689 1.536 1.536 1.536zm19.65-3.159h-8.386V6.783a3.959 3.959 0 013.441 3.918v.462l-.122-.027a.516.516 0 00-.61.391l-.815 3.709a.511.511 0 00.39.609l1.761.388a1.308 1.308 0 001.558-1.002l.471-2.145a1.313 1.313 0 00-.997-1.562l-.613-.135v-.687a4.987 4.987 0 00-4.465-4.953V3.363h8.387l-.001 15.319zm-4.786-6.434l1.258.277a.283.283 0 01.218.341l-.471 2.145a.304.304 0 01-.341.223l-1.259-.277.596-2.708zM3.897 3.362h8.392v2.386a4.987 4.987 0 00-4.47 4.954v.687l-.614.136a1.305 1.305 0 00-.997 1.561l.471 2.143a1.316 1.316 0 001.563 1.005l1.754-.387a.512.512 0 00.389-.609l-.815-3.709a.513.513 0 00-.611-.391l-.117.026v-.461a3.958 3.958 0 013.446-3.919v11.899H3.896V3.364zm4.783 8.885l.596 2.708-1.252.277a.29.29 0 01-.344-.22l-.471-2.147c-.017-.075-.003-.151.037-.214s.106-.109.18-.126l1.254-.277zM1.536 5.584c0-.282.23-.512.512-.512h.825v13.609c0 .565.459 1.024 1.024 1.024h17.802c.564 0 1.024-.459 1.024-1.024V5.072h.829c.282 0 .512.23.512.512v14.72c0 .282-.23.512-.512.512h-8.571a.51.51 0 00-.489.362 1.492 1.492 0 01-1.434 1.06h-.519a1.498 1.498 0 01-1.437-1.066.512.512 0 00-.488-.356H2.048a.513.513 0 01-.512-.512V5.584z"/></symbol><symbol id="icon-global_comunication" viewBox="0 0 26 32"><path d="M1.918 10.148v2.182c0 .117.054.228.146.3a8.55 8.55 0 006.968 1.648 9.261 9.261 0 003.768.795 9.234 9.234 0 003.768-.795c2.382.481 4.919-.036 6.968-1.648a.383.383 0 00.146-.3v-2.182a.924.924 0 00-.443-.791l-2.98-1.676c.652-.827 1.138-2.005 1.222-3.015.247-1.739-1.17-3.58-3.21-3.58-.858 0-1.673.353-2.271.945-.021.021-.044.038-.064.059-.018.019-.033.042-.051.061l-.034.041c-.583-1.063-1.704-1.72-3.024-1.72-.128 0-.254.009-.379.021-.008 0-.014-.004-.022-.004-.071 0-.221.019-.301.042-.012.003-.02.012-.032.016a3.455 3.455 0 00-2.322 1.661 3.217 3.217 0 00-2.449-1.123c-3.011 0-4.347 3.554-1.97 6.612l-3.007 1.67a.918.918 0 00-.426.781zm14.643 3.29c-.065.032-.129.065-.194.095l-.001.001a8.483 8.483 0 01-3.566.775 8.503 8.503 0 01-5.143-1.717V10.38c0-.075.037-.142.079-.17l3.5-1.945c.435.37.992.641 1.568.641.555 0 1.155-.275 1.581-.65l3.457 1.942c.064.041.1.107.1.183v2.211c-.44.331-.904.612-1.382.846zm6.286-3.426a.156.156 0 01.071.136v1.994a7.693 7.693 0 01-5.191 1.525c.284-.178.594-.398.834-.586a.382.382 0 00.146-.301v-2.4a.985.985 0 00-.47-.837L16.4 8.511l.447-.247c.542.442 1.007.573 1.424.573.51 0 1.048-.25 1.447-.585l3.128 1.76zm-4.576-8.163A2.48 2.48 0 0120.599 3.5a2.853 2.853 0 01-1.724-.88.382.382 0 00-.607.065 2.837 2.837 0 01-1.963 1.356v-.002a3.7 3.7 0 00-.025-.503l-.006-.051a4.155 4.155 0 00-.094-.469 2.51 2.51 0 012.091-1.166zm-2.05 2.971a3.58 3.58 0 002.438-1.358 3.612 3.612 0 002.082.814c-.006 1.381-1.134 3.796-2.47 3.796-1.03 0-1.91-1.474-2.239-2.495a6.21 6.21 0 00.189-.758zm.078 2.874l-.683.378-.689-.387c.256-.318.49-.688.691-1.089.193.406.424.778.681 1.098zm-1.03-2.241c-.368 1.099-1.314 2.689-2.465 2.689-1.342 0-2.486-2.207-2.704-3.618.058-.014 1.872.097 3.12-1.542.634.53 1.488.881 2.32.916.01.498-.111 1.084-.271 1.555zm-2.443-4.218c2.142 0 2.55 1.843 2.583 1.882a3.18 3.18 0 01-1.975-.983.382.382 0 00-.609.066 3.138 3.138 0 01-2.759 1.557c.105-1.404 1.23-2.523 2.759-2.523zM9.984 6.588c.198.397.434.775.703 1.108l-.675.375-.699-.393c.265-.338.49-.716.67-1.09zM7.322 1.849c.867 0 1.661.44 2.103 1.166-.022.077-.082.384-.09.422a2.82 2.82 0 01-1.403-.819.383.383 0 00-.608.066 2.86 2.86 0 01-2.448 1.398 2.467 2.467 0 012.446-2.235zM4.91 4.846a3.628 3.628 0 002.807-1.384 3.565 3.565 0 001.584.741c.022.443.138.981.27 1.378-.211.647-.616 1.418-1.118 1.931l-.011.008c-.314.331-.761.554-1.113.554-1.228 0-2.189-1.933-2.419-3.227zm-2.228 5.302c0-.058.026-.107.052-.125l3.171-1.76c.19.158.234.177.272.204.373.248.715.372 1.182.372.497 0 .95-.211 1.348-.535l.068-.052.453.255-1.885 1.049a.978.978 0 00-.45.825v2.4c0 .117.054.228.146.3.244.192.56.415.834.587a7.721 7.721 0 01-5.191-1.526v-1.994z"/><path d="M24.468 16.484a1.589 1.589 0 00-1.547-.085l-4.715 2.278a1.626 1.626 0 00-1.623-1.596l-2.704.001c-1.333-1.159-3.037-1.869-4.586-1.906a194.549 194.549 0 00-3.539-.049v-.772H.382v8.874h5.372v-1.063c1.473.845 5.347 2.963 7.185 2.963.042 0 .082-.001.122-.003 3.233-.181 10.857-5.547 11.36-5.903a1.602 1.602 0 00.047-2.739zM4.99 22.465H1.146v-7.346H4.99v7.346zm19.038-3.898a.24.24 0 00-.034.021c-.079.056-7.922 5.603-10.976 5.774-.03.002-.061.002-.093.002-1.612 0-5.543-2.121-7.171-3.083V15.89c.637.003 2.001.013 3.521.049 1.415.034 2.987.71 4.204 1.807l.109.099 2.996-.001c.475 0 .862.387.862.862s-.387.862-.862.862h-5.503v.764h5.503a1.62 1.62 0 001.29-.647l5.381-2.599c.264-.129.559-.112.808.044s.391.414.391.707c0 .302-.163.58-.426.728zM12.418 9.84h.764v.709h-.764V9.84zm0 1.413h.764v.709h-.764v-.709zm0 1.413h.764v.709h-.764v-.709z"/></symbol><symbol id="icon-insurance" viewBox="0 0 22 32"><path d="M.433 10.994c0 .285-.433.285-.433 0C0 4.924 4.923 0 10.994 0c6.073 0 10.994 4.923 10.994 10.994 0 .285-.431.285-.431 0 0-4.103-6.743-4.106-6.743 0 0 .285-.444.285-.444 0 0-4.093-6.753-4.093-6.753 0 0 .285-.444.285-.444 0 0-4.085-6.74-4.114-6.74 0zM7.212 9.4c.117-2.362.488-4.479 1.028-6.096.431-1.285.976-2.26 1.594-2.808A10.568 10.568 0 00.608 9.073c1.596-2.302 5.281-2.118 6.605.327zm7.124-.106c-.119-2.271-.48-4.303-.999-5.852-1.339-4.01-3.348-4.01-4.687 0-.519 1.549-.877 3.582-.999 5.852 1.44-2.447 5.245-2.447 6.685 0zm7.044-.221A10.563 10.563 0 0012.154.496c.62.548 1.163 1.523 1.594 2.808.54 1.617.911 3.735 1.028 6.096 1.331-2.458 5.027-2.603 6.605-.327zm-11.829 6.95v-2.232c-.402.267-.719.68-.719 1.183 0 .491.322.815.719 1.049zm.433.693c-.771-.353-1.583-.766-1.583-1.741 0-1.007.766-1.51 1.583-1.887v3.628zm2.453 2.676v2.258c.407-.27.727-.685.727-1.189 0-.496-.327-.831-.727-1.069zm-.431-.695c.773.358 1.591.784 1.591 1.765 0 1.01-.771 1.513-1.591 1.887v-3.652z"/><path d="M12.437 11.251c1.775.41 3.6 1.739 3.6 3.724 0 1.7-2.873 1.638-2.873 0 0-.506-.319-.921-.727-1.189v3.177c1.643.537 3.605 1.5 3.605 3.498 0 1.988-1.825 3.314-3.605 3.722-.008 1.892-2.881 1.889-2.886-.003-1.012-.234-1.892-.706-2.528-1.331-.667-.659-1.061-1.487-1.061-2.388 0-1.674 2.87-1.674 2.87 0 0 .501.317.914.719 1.181v-3.174c-1.63-.527-3.602-1.518-3.602-3.498 0-1.988 1.824-3.314 3.602-3.722.008-1.892 2.881-1.889 2.886.003zm-2.453.005v.345c-1.69.335-3.605 1.417-3.605 3.369 0 1.876 2.102 2.717 3.605 3.182v4.194c-.812-.371-1.583-.872-1.583-1.884 0-1.106-2.009-1.106-2.009 0 0 .781.348 1.503.934 2.079.745.737 1.648 1.087 2.658 1.287v.348c0 1.331 2.022 1.331 2.022 0v-.345c1.695-.337 3.602-1.42 3.602-3.369 0-1.895-2.097-2.709-3.602-3.184v-4.191c.815.371 1.591.872 1.591 1.889 0 1.077 2.006 1.121 2.006 0 0-1.949-1.905-3.034-3.597-3.371v-.348c0-1.331-2.022-1.331-2.022 0z"/></symbol></defs></svg>