<svg xmlns="http://www.w3.org/2000/svg" xmlns:cc="http://creativecommons.org/ns#" xmlns:dc="http://purl.org/dc/elements/1.1/" xmlns:rdf="http://www.w3.org/1999/02/22-rdf-syntax-ns#" version="1.1" viewBox="0 0 26.458 33.0725" x="0px" y="0px"><g transform="translate(0 -270.54)"><path d="m3.8504 271.06c-0.42594 0.0202-0.84418 0.20131-1.1509 0.5385l-2.1452 2.3582c3e-3 -7e-3 -0.0084-6e-3 -0.06918 0.08a0.52092 0.52092 0 0 0-0.0746 0.14582c-0.87318 2.7814-0.28784 5.841 1.138 8.751 1.4259 2.91 3.7003 5.6948 6.3115 7.9799 2.6112 2.2852 5.5574 4.073 8.3665 4.9598 2.8091 0.88678 5.5328 0.87506 7.5513-0.58937a0.52092 0.52092 0 0 0 0.06172-0.0536c0.05288-0.0529 0.05468-0.0596 0.04612-0.0516l0.0081-0.0102 2.135-2.348c0.6135-0.67444 0.564-1.7345-0.11055-2.348l-5.0649-4.6064c-0.67444-0.6135-1.7345-0.56456-2.348 0.10987l-2.2917 2.5202c-1.8602-0.53863-3.4506-1.4518-4.9801-2.8431-1.5298-1.3915-2.5896-2.8891-3.3016-4.6906l2.291-2.5202c0.61351-0.67445 0.56469-1.7345-0.10987-2.348l-5.0649-4.6064c-0.33722-0.30675-0.77111-0.44811-1.1971-0.42795zm0.04815 1.0336c0.1569-7e-3 0.31653 0.0475 0.44694 0.16616l5.0649 4.6064c0.26093 0.23729 0.27865 0.61608 0.04137 0.87694l-2.5325 2.7834a0.52092 0.52092 0 0 0-0.10309 0.52833c0.76861 2.0975 2.0085 3.8182 3.7146 5.3701 1.7061 1.5518 3.5349 2.624 5.6957 3.191a0.52092 0.52092 0 0 0 0.51748-0.15328l2.5331-2.7841c0.23725-0.2608 0.61543-0.27802 0.87626-0.0407l5.0656 4.6064c0.26092 0.23728 0.27797 0.61541 0.04069 0.87625l-2.1174 2.3276c-1.6564 1.189-3.9899 1.2556-6.6031 0.43067-2.6234-0.82818-5.4714-2.5436-7.9921-4.7496-2.5207-2.206-4.7143-4.9-6.0626-7.6516-1.3344-2.7234-1.8185-5.4766-1.0845-7.9033l2.0686-2.2734c0.11863-0.13041 0.27309-0.20024 0.42999-0.20754z" color="#000000" color-rendering="auto" dominant-baseline="auto" image-rendering="auto" shape-rendering="auto" solid-color="#000000" style="font-feature-settings:normal;font-variant-alternates:normal;font-variant-caps:normal;font-variant-ligatures:normal;font-variant-numeric:normal;font-variant-position:normal;isolation:auto;mix-blend-mode:normal;shape-padding:0;text-decoration-color:#000000;text-decoration-line:none;text-decoration-style:solid;text-indent:0;text-orientation:mixed;text-transform:none;white-space:normal;"/></g><text x="0" y="41.458" fill="#000000" font-size="5px" font-weight="bold" font-family="'Helvetica Neue', Helvetica, Arial-Unicode, Arial, Sans-serif">Created by mardjoe</text><text x="0" y="46.458" fill="#000000" font-size="5px" font-weight="bold" font-family="'Helvetica Neue', Helvetica, Arial-Unicode, Arial, Sans-serif">from the Noun Project</text></svg>